HIERARCHY
ROOT root
{
	OFFSET 0.000000 0.000000 0.000000
	CHANNELS 6 Xposition Yposition Zposition Zrotation Yrotation Xrotation
	JOINT lhip
	{
		OFFSET 0.058581 -0.082280 -0.017664
		CHANNELS 3 Zrotation Yrotation Xrotation
		JOINT lknee
		{
			OFFSET 0.043451 -0.386469 0.008037
			CHANNELS 3 Zrotation Yrotation Xrotation
			JOINT lankle
			{
				OFFSET -0.014790 -0.426874 -0.037428
				CHANNELS 3 Zrotation Yrotation Xrotation
				JOINT ltoe
				{
					OFFSET 0.041054 -0.060286 0.122042
					CHANNELS 3 Zrotation Yrotation Xrotation
					End Site
					{
						OFFSET 0.000000 0.000000 0.000000
					}
				}
			}
		}
	}
	JOINT rhip
	{
		OFFSET -0.060310 -0.090513 -0.013543
		CHANNELS 3 Zrotation Yrotation Xrotation
		JOINT rknee
		{
			OFFSET -0.043257 -0.383688 -0.004843
			CHANNELS 3 Zrotation Yrotation Xrotation
			JOINT rankle
			{
				OFFSET 0.019056 -0.420046 -0.034562
				CHANNELS 3 Zrotation Yrotation Xrotation
				JOINT rtoe
				{
					OFFSET -0.034840 -0.062106 0.130323
					CHANNELS 3 Zrotation Yrotation Xrotation
					End Site
					{
						OFFSET 0.000000 0.000000 0.000000
					}
				}
			}
		}
	}
	JOINT lowerback
	{
		OFFSET 0.004439 0.124404 -0.038385
		CHANNELS 3 Zrotation Yrotation Xrotation
		JOINT upperback
		{
			OFFSET 0.004488 0.137956 0.026820
			CHANNELS 3 Zrotation Yrotation Xrotation
			JOINT chest
			{
				OFFSET -0.002265 0.056032 0.002855
				CHANNELS 3 Zrotation Yrotation Xrotation
				JOINT lowerneck
				{
					OFFSET -0.013390 0.211636 -0.033468
					CHANNELS 3 Zrotation Yrotation Xrotation
					JOINT upperneck
					{
						OFFSET 0.010113 0.088937 0.050410
						CHANNELS 3 Zrotation Yrotation Xrotation
						End Site
						{
							OFFSET 0.000000 0.000000 0.000000
						}
					}
				}
				JOINT lclavicle
				{
					OFFSET 0.071702 0.114000 -0.018898
					CHANNELS 3 Zrotation Yrotation Xrotation
					JOINT lshoulder
					{
						OFFSET 0.122921 0.045205 -0.019046
						CHANNELS 3 Zrotation Yrotation Xrotation
						JOINT lelbow
						{
							OFFSET 0.255332 -0.015649 -0.022946
							CHANNELS 3 Zrotation Yrotation Xrotation
							JOINT lwrist
							{
								OFFSET 0.265709 0.012698 -0.007375
								CHANNELS 3 Zrotation Yrotation Xrotation
								End Site
								{
									OFFSET 0.000000 0.000000 0.000000
								}
							}
						}
					}
				}
				JOINT rclavicle
				{
					OFFSET -0.082954 0.112472 -0.023707
					CHANNELS 3 Zrotation Yrotation Xrotation
					JOINT rshoulder
					{
						OFFSET -0.113228 0.046853 -0.008472
						CHANNELS 3 Zrotation Yrotation Xrotation
						JOINT relbow
						{
							OFFSET -0.260127 -0.014369 -0.031269
							CHANNELS 3 Zrotation Yrotation Xrotation
							JOINT rwrist
							{
								OFFSET -0.269108 0.006794 -0.006027
								CHANNELS 3 Zrotation Yrotation Xrotation
								End Site
								{
									OFFSET 0.000000 0.000000 0.000000
								}
							}
						}
					}
				}
			}
		}
	}
}
MOTION
Frames: 16
Frame Time: 0.033333
-0.737833 0.705658 0.991248 41.720427 -1.286335 87.757761 0.829112 1.200396 -5.464754 -1.844259 0.839969 30.092585 1.927007 14.695885 -13.518628 0.000000 -0.000000 0.000000 5.990632 1.809035 -2.778071 0.699278 3.709782 19.068107 -2.201093 -4.570528 -18.852962 0.000000 -0.000000 0.000000 -0.141422 0.410238 12.168645 2.094987 -0.983680 -2.506245 0.073567 -1.048717 3.690836 2.208922 6.055810 3.355370 -3.784304 1.804434 16.487802 -27.625236 6.958509 1.122836 -57.737393 -6.783739 8.060564 12.562994 -29.242746 3.648739 -5.403345 -2.051356 -4.943001 28.399937 -1.010598 1.337345 56.995591 8.156549 13.466707 -13.086082 19.752001 -7.182336 6.967072 0.508414 -9.429924 
-0.738819 0.694515 0.991837 39.627690 -1.872814 87.567479 1.242021 -0.638406 -8.503411 -2.796389 2.143966 36.957104 2.086879 14.763148 -10.474912 0.000000 -0.000000 0.000000 5.653783 1.934575 -1.342715 1.042703 4.967076 17.983707 -2.709807 -3.912382 -18.900414 0.000000 -0.000000 0.000000 -0.402247 1.260191 12.501101 1.919741 -0.977913 -2.316668 -0.043035 -0.674848 3.654699 1.876460 6.229637 3.212316 -3.559933 2.165928 16.369874 -27.623555 7.039997 1.005677 -57.555806 -6.490737 8.166509 12.811072 -29.719279 3.502745 -5.417876 -2.132320 -5.640131 28.282256 -0.786771 1.796050 56.937881 8.356668 13.601989 -13.027915 20.109486 -6.965767 6.844366 0.623784 -9.872435 
-0.738970 0.682526 0.992475 36.960148 -2.194762 87.209501 1.562192 -1.868024 -10.715823 -3.336851 3.020283 42.211543 2.962258 14.765721 -9.788250 0.000000 -0.000000 0.000000 5.502156 1.713010 -0.034027 1.362794 6.719870 17.680520 -3.016923 -2.462813 -18.890505 0.000000 -0.000000 0.000000 -0.271432 2.306368 12.999641 1.729034 -0.695729 -2.171383 -0.231051 -0.319353 3.689345 1.502773 6.313213 3.116825 -3.458184 2.550802 16.243921 -27.970302 7.168717 0.731090 -57.238887 -6.086564 8.127009 13.090682 -30.354967 3.321277 -5.304407 -2.124979 -5.774374 28.346321 -0.498407 1.929207 56.409133 8.436654 13.682777 -12.853374 20.625610 -6.516432 6.859219 0.590695 -9.719793 
-0.737498 0.667574 0.992941 33.776134 -2.568573 86.905271 1.368709 -3.115436 -13.038189 -4.830211 2.149092 45.575355 3.515349 13.700791 -11.645440 0.000000 -0.000000 0.000000 5.393173 1.873794 1.579157 1.457887 8.835387 17.161312 -2.787031 -1.390141 -18.750552 0.000000 -0.000000 0.000000 -0.193686 3.099938 13.469418 1.580136 -0.376044 -2.103990 -0.335895 0.158761 3.908023 1.401555 6.970541 2.981098 -3.760576 3.135207 16.499291 -28.529316 7.453829 0.201543 -57.159919 -5.667039 8.143902 13.299918 -30.436168 3.009116 -4.810462 -2.123567 -6.414198 28.474555 -0.189998 1.819468 55.587839 8.941467 13.929899 -12.820481 20.756337 -6.283250 6.784570 0.765923 -9.478347 
-0.735904 0.658213 0.993338 31.818228 -2.862691 86.817427 0.894781 -3.868765 -13.988237 -5.820566 1.137086 45.270804 3.805370 12.970378 -12.951606 0.000000 -0.000000 0.000000 5.253583 1.947483 2.493811 1.348011 10.021222 16.782564 -2.541803 -0.743853 -18.655634 0.000000 -0.000000 0.000000 -0.150532 3.632197 13.492462 1.402603 -0.184565 -1.987529 -0.411848 0.416464 4.113742 1.286823 7.367390 3.191891 -3.952751 3.239208 16.490627 -28.553504 7.585021 -0.050778 -57.428252 -5.531395 8.265752 13.499079 -30.304098 3.077637 -4.867946 -2.142102 -6.247766 28.478851 -0.106261 1.579265 55.406277 9.347173 13.907408 -13.014117 20.602958 -6.215242 6.762489 0.501149 -9.287129 
-0.733033 0.645035 0.994202 29.281947 -2.936020 86.734834 0.405977 -4.956243 -14.926690 -6.208502 -0.310267 42.781772 3.659040 12.364962 -13.918155 0.000000 -0.000000 0.000000 5.341344 2.100039 3.747564 1.219613 11.488797 16.300777 -2.203320 0.094866 -18.208996 0.000000 -0.000000 0.000000 0.088851 4.020852 13.870486 1.291796 -0.067104 -2.113601 -0.385464 0.759405 4.141926 1.193906 8.146267 3.404490 -4.270731 3.787021 16.365175 -28.550916 8.035427 -0.280288 -58.059169 -4.931551 8.455554 13.731088 -30.385849 2.922082 -4.804617 -2.216408 -6.739491 28.124905 0.016953 1.579246 55.299327 9.964876 13.935781 -13.092089 20.521045 -6.436786 6.939494 0.622804 -9.696078 
-0.729797 0.632024 0.994614 26.575566 -3.172835 86.660371 -0.217548 -6.082486 -15.443972 -6.050808 -1.793756 38.091784 2.483338 11.722608 -14.253159 0.000000 -0.000000 0.000000 5.246606 2.515427 4.756266 1.119266 12.942661 16.377475 -1.713855 0.576489 -18.168054 0.000000 -0.000000 0.000000 0.262501 4.395346 14.131352 1.041840 0.134584 -1.874432 -0.446045 1.058298 4.246851 1.078225 9.183292 3.230396 -4.632753 4.176821 16.369018 -28.548006 8.035575 -0.436771 -58.420030 -4.460171 8.893984 13.794940 -30.301826 2.544540 -4.461647 -2.524554 -7.174085 27.974646 0.394145 1.552900 55.114667 10.620080 14.169827 -13.277542 20.770753 -7.048083 6.875573 0.814465 -9.960966 
-0.725758 0.618070 0.994967 23.998991 -3.563149 86.521000 -0.754712 -7.894988 -15.434444 -5.586269 -2.483615 31.724922 1.701423 11.490134 -14.042983 0.000000 -0.000000 0.000000 5.214177 2.912995 5.739157 0.912535 14.513659 16.811114 -1.681636 0.284787 -18.097864 0.000000 -0.000000 0.000000 0.174973 4.990536 14.392692 0.904585 0.244545 -1.546415 -0.423214 1.246532 4.343846 1.033592 10.276110 3.072191 -4.997590 4.610281 16.232619 -28.571489 8.023959 -0.638235 -58.700684 -4.148682 9.475997 13.652948 -30.183531 2.905978 -4.238425 -2.595753 -7.024236 27.859831 0.704021 1.491088 55.004311 11.239061 14.574490 -13.855802 21.021675 -7.550494 6.343991 1.127566 -9.850444 
-0.721869 0.603889 0.994741 22.031766 -3.958930 86.535309 -1.655009 -8.909384 -15.501097 -5.004316 -5.012326 25.011970 0.887280 10.266173 -13.704806 0.000000 -0.000000 0.000000 5.567910 3.413198 6.424601 0.331176 15.147237 17.547115 -1.171568 -0.685669 -18.173334 0.000000 -0.000000 0.000000 -0.084904 5.251917 14.551784 0.745603 0.282879 -1.315832 -0.356170 1.334561 4.472695 1.074034 11.106662 3.001679 -5.289681 4.854178 15.984430 -28.290135 7.922480 -0.717802 -59.087046 -3.928630 9.962491 13.617083 -30.236876 2.932023 -4.270481 -2.755126 -7.274838 27.674477 0.935643 1.264354 55.060796 11.625149 15.028131 -13.968427 21.717245 -7.878227 6.634478 1.359191 -10.112477 
-0.717165 0.584956 0.993000 20.272930 -4.575059 86.667031 -2.704732 -9.911241 -15.531997 -5.063153 -9.274512 17.218912 -1.257482 7.566732 -13.019117 0.000000 -0.000000 0.000000 5.894329 3.834209 7.305121 -0.400112 15.922616 18.549221 -1.076586 -1.685167 -18.772434 0.000000 -0.000000 0.000000 -0.598323 5.450085 14.615366 0.563926 0.144038 -0.972918 -0.397489 1.331571 4.472797 1.122022 12.354951 2.885309 -5.431498 4.907031 15.936106 -27.990471 7.696480 -0.674060 -59.141907 -3.823540 10.505258 13.591758 -30.393185 2.764046 -3.606434 -2.910294 -7.733516 27.737962 1.079959 0.874593 55.588240 11.832303 15.547472 -14.814905 22.570885 -8.146048 6.582126 1.530699 -10.471971 
-0.712644 0.568479 0.990617 19.018388 -5.025999 86.763324 -3.409727 -9.912860 -15.652207 -5.407064 -10.912040 13.040086 -2.776400 5.688600 -11.888211 0.000000 -0.000000 0.000000 5.696019 4.161392 7.806949 -0.201530 16.648386 19.866902 -0.970665 -1.731474 -19.245865 0.000000 -0.000000 0.000000 -0.861809 5.477557 14.714477 0.382031 0.098353 -0.813087 -0.555302 1.364401 4.484130 1.200492 13.277240 2.828124 -5.688310 5.135354 15.926006 -27.865397 7.597551 -0.905430 -58.938386 -3.824680 10.681615 13.461091 -30.432474 2.649243 -3.111084 -3.105601 -8.065120 27.885753 0.999029 0.612176 55.821095 11.932357 15.905746 -14.870314 23.312378 -8.262782 6.175512 1.875675 -10.894118 
-0.708600 0.549690 0.988124 17.933842 -5.099487 86.664121 -3.891122 -9.263946 -15.337961 -5.952872 -10.752377 10.894146 -3.883750 4.949073 -11.162657 0.000000 -0.000000 0.000000 5.968489 4.240500 8.391304 -0.106776 17.194343 21.484484 -0.819807 -1.314140 -19.269453 0.000000 -0.000000 0.000000 -0.930752 5.472001 14.861729 0.376316 0.230916 -0.547951 -0.681872 1.626390 4.477612 0.987541 13.735037 2.856071 -5.792967 5.281433 15.824292 -27.991898 7.341880 -1.320030 -58.671055 -3.912132 10.653845 13.714881 -30.396584 2.249221 -2.862924 -3.112888 -7.636508 27.945096 0.988056 0.530437 56.134893 11.823812 16.055876 -15.077250 23.885270 -8.449012 6.283698 1.994174 -10.971692 
-0.704515 0.528373 0.985679 17.329677 -4.895803 86.520990 -4.486961 -8.514607 -14.863238 -6.164400 -9.320978 11.141363 -4.214682 5.192067 -10.635094 0.000000 -0.000000 0.000000 6.390945 3.996090 9.117122 0.199325 17.222822 22.957279 -0.678081 -0.921690 -18.779341 0.000000 -0.000000 0.000000 -0.886489 5.385027 14.747877 0.446027 0.254457 -0.295925 -0.705363 1.877078 4.501441 0.967189 13.938519 3.155394 -5.839950 5.700786 15.846719 -27.980665 7.166028 -1.548389 -58.551275 -4.051696 10.382628 14.032276 -30.406781 1.823090 -2.861192 -3.007689 -7.742490 27.938089 1.021431 0.757505 56.488528 11.622682 16.176946 -15.116192 24.122250 -8.374395 6.319236 1.960571 -10.992302 
-0.700024 0.505347 0.983640 16.890997 -4.847914 86.561940 -5.052641 -8.012316 -14.300636 -7.022286 -7.790139 12.686482 -2.909392 5.482630 -10.771718 0.000000 -0.000000 0.000000 6.320854 3.683520 9.453927 0.813014 17.084411 24.948045 -0.202578 0.090372 -17.886871 0.000000 -0.000000 0.000000 -1.043166 5.502738 14.456494 0.478809 0.378880 -0.332964 -0.748676 1.898142 4.511835 1.053398 13.822598 3.612684 -5.749300 6.081901 15.997923 -27.818600 7.278113 -1.606499 -58.557525 -4.175418 10.028504 14.399877 -30.636253 1.472967 -2.804159 -2.863927 -7.837162 28.000621 0.828768 0.991324 56.908370 11.217790 16.251176 -14.953514 24.134495 -8.176626 6.554134 1.915407 -10.993644 
-0.695282 0.479472 0.981984 16.193520 -4.715351 86.723024 -5.481291 -8.138143 -12.659784 -6.670691 -7.485068 12.844260 0.198405 6.389412 -11.635012 0.000000 -0.000000 0.000000 6.021104 3.357371 9.421388 2.163381 16.781835 27.532485 0.787541 1.160017 -15.721198 0.000000 -0.000000 0.000000 -1.310584 5.650850 13.666279 0.545142 0.679895 -0.176803 -0.714595 2.116968 4.470572 1.047385 13.692918 4.434222 -5.829242 6.529606 15.921265 -27.804882 7.491355 -1.583844 -58.226017 -4.094990 9.777157 14.480704 -31.107385 1.370075 -3.252204 -2.757412 -7.963340 28.237963 0.433421 1.423725 57.278660 10.730142 16.128479 -14.973897 24.044402 -8.348367 6.824557 1.769895 -10.998133 
-0.690415 0.452358 0.981279 15.882238 -4.613012 87.164899 -6.006286 -8.218025 -11.263886 -5.961039 -8.986842 12.785446 3.438578 7.248440 -10.669619 0.000000 -0.000000 0.000000 5.606102 3.088963 8.199981 3.843690 14.981089 31.181575 2.126071 1.817444 -11.970834 0.000000 -0.000000 0.000000 -1.720090 5.364937 12.695074 0.587564 1.102274 -0.069614 -0.717870 2.343966 4.279786 1.094487 13.601489 5.198965 -5.909179 7.211933 15.950611 -27.649159 8.058751 -1.651611 -58.075368 -4.028444 9.767288 14.613820 -31.614344 1.384814 -3.779977 -2.321232 -8.179540 28.600662 -0.136533 1.763596 57.831934 10.313239 16.036383 -15.322698 23.511836 -8.993886 7.430739 1.782775 -11.086846 
